<?xml version="1.0" standalone="no"?>
<!DOCTYPE svg PUBLIC "-//W3C//DTD SVG 20010904//EN"
 "http://www.w3.org/TR/2001/REC-SVG-20010904/DTD/svg10.dtd">
<svg version="1.0" xmlns="http://www.w3.org/2000/svg"
 width="128.000000pt" height="128.000000pt" viewBox="0 0 128.000000 128.000000"
 preserveAspectRatio="xMidYMid meet">

<g transform="translate(0.000000,128.000000) scale(0.100000,-0.100000)"
fill="#000000" stroke="none">
<path d="M560 1200 c0 -29 -4 -40 -15 -40 -10 0 -15 -10 -15 -30 0 -20 5 -30
15 -30 8 0 15 -4 15 -10 0 -6 -27 -10 -60 -10 -47 0 -60 -3 -60 -15 0 -8 -4
-15 -10 -15 -5 0 -10 -20 -10 -45 0 -25 5 -45 10 -45 6 0 10 -7 10 -15 0 -8 7
-15 15 -15 9 0 15 -9 15 -25 0 -16 -6 -25 -15 -25 -8 0 -15 -7 -15 -15 0 -8
-4 -15 -10 -15 -5 0 -10 -18 -10 -40 0 -22 5 -40 10 -40 6 0 10 -7 10 -15 0
-11 12 -15 45 -15 l45 0 0 -180 c0 -153 -2 -180 -15 -180 -8 0 -15 -4 -15 -10
0 -5 -7 -10 -15 -10 -8 0 -15 -7 -15 -15 0 -8 -7 -15 -15 -15 -8 0 -15 -7 -15
-15 0 -8 -4 -15 -10 -15 -5 0 -10 -7 -10 -15 0 -8 -7 -15 -15 -15 -8 0 -15 -7
-15 -15 0 -8 -7 -15 -15 -15 -11 0 -15 -11 -15 -40 0 -29 4 -40 15 -40 8 0 15
-7 15 -15 0 -8 -7 -15 -15 -15 -9 0 -15 -9 -15 -25 0 -16 6 -25 15 -25 8 0 15
-7 15 -15 0 -13 33 -15 240 -15 207 0 240 2 240 15 0 8 7 15 15 15 9 0 15 9
15 25 0 16 -6 25 -15 25 -8 0 -15 7 -15 15 0 8 7 15 15 15 11 0 15 11 15 40 0
29 -4 40 -15 40 -8 0 -15 7 -15 15 0 8 -7 15 -15 15 -8 0 -15 7 -15 15 0 8 -7
15 -15 15 -8 0 -15 7 -15 15 0 8 -4 15 -10 15 -5 0 -10 7 -10 15 0 8 -7 15
-15 15 -8 0 -15 5 -15 10 0 6 -7 10 -15 10 -13 0 -15 27 -15 180 l0 180 40 0
c29 0 40 4 40 15 0 8 7 15 15 15 11 0 15 11 15 40 0 29 -4 40 -15 40 -8 0 -15
7 -15 15 0 8 -4 15 -10 15 -5 0 -10 11 -10 25 0 14 5 25 10 25 6 0 10 7 10 15
0 8 7 15 15 15 11 0 15 12 15 45 0 33 -4 45 -15 45 -8 0 -15 7 -15 15 0 12
-13 15 -55 15 -30 0 -55 5 -55 10 0 6 7 10 15 10 10 0 15 10 15 30 0 20 -5 30
-15 30 -11 0 -15 11 -15 40 l0 40 -70 0 -70 0 0 -40z"/>
</g>
</svg>
